<svg width="1540" height="854" viewBox="0 0 1540 854" fill="none" xmlns="http://www.w3.org/2000/svg">
<rect width="1535" height="850" fill="white"/>
<path d="M1469.08 59C1459.36 70.2606 1443.91 101.825 1459.94 138H1468.56M1469.08 59C1477.43 71.9368 1481.89 83.9286 1483.82 94.5412M1469.08 59L1468.56 138M1479.98 131.842C1478.8 134.344 1477.52 136.41 1476.29 138H1468.56M1479.98 131.842L1494.75 137.12C1501.22 130.711 1510.63 117.334 1514.83 100.171M1479.98 131.842C1483.88 123.609 1486.76 110.667 1483.82 94.5412M1483.82 94.5412C1484.59 93.0328 1485.36 91.5874 1486.13 90.203M1486.13 90.203L1503.53 86.6236L1514.83 100.171M1486.13 90.203C1488.01 86.8433 1489.91 83.8424 1491.8 81.1693M1514.83 100.171C1515.61 96.9732 1516.22 93.6435 1516.59 90.203M1491.8 81.1693C1501.08 67.9839 1509.93 62.7727 1513.91 61.8151C1516.94 71.777 1517.53 81.3564 1516.59 90.203M1491.8 81.1693L1507.05 77.6503L1516.59 90.203" stroke="black" stroke-width="2.5"/>
<path d="M1402.08 425C1392.36 436.261 1376.91 467.825 1392.94 504H1401.56M1402.08 425C1410.43 437.937 1414.89 449.929 1416.82 460.541M1402.08 425L1401.56 504M1412.98 497.842C1411.8 500.344 1410.52 502.41 1409.29 504H1401.56M1412.98 497.842L1427.75 503.12C1434.22 496.711 1443.63 483.334 1447.83 466.171M1412.98 497.842C1416.88 489.609 1419.76 476.667 1416.82 460.541M1416.82 460.541C1417.59 459.033 1418.36 457.587 1419.13 456.203M1419.13 456.203L1436.53 452.624L1447.83 466.171M1419.13 456.203C1421.01 452.843 1422.91 449.842 1424.8 447.169M1447.83 466.171C1448.61 462.973 1449.22 459.644 1449.59 456.203M1424.8 447.169C1434.08 433.984 1442.93 428.773 1446.91 427.815C1449.94 437.777 1450.53 447.356 1449.59 456.203M1424.8 447.169L1440.05 443.65L1449.59 456.203" stroke="black" stroke-width="2.5"/>
<path d="M132.647 282C115.323 302.098 87.8117 358.435 116.366 423H131.708M132.647 282C147.519 305.09 155.455 326.493 158.899 345.434M132.647 282L131.708 423M152.062 412.009C149.956 416.474 147.683 420.163 145.485 423H131.708M152.062 412.009L178.36 421.43C189.89 409.991 206.65 386.115 214.136 355.483M152.062 412.009C158.996 397.314 164.133 374.216 158.899 345.434M158.899 345.434C160.263 342.742 161.638 340.162 163.018 337.691M163.018 337.691L194.015 331.303L214.136 355.483M163.018 337.691C166.368 331.695 169.752 326.339 173.104 321.568M214.136 355.483C215.532 349.775 216.605 343.832 217.262 337.691M173.104 321.568C189.639 298.035 205.404 288.733 212.488 287.024C217.892 304.805 218.952 321.902 217.262 337.691M173.104 321.568L200.277 315.287L217.262 337.691" stroke="black" stroke-width="3"/>
<path d="M1069.65 599C1052.32 619.098 1024.81 675.435 1053.37 740H1068.71M1069.65 599C1084.52 622.09 1092.45 643.493 1095.9 662.434M1069.65 599L1068.71 740M1089.06 729.009C1086.96 733.474 1084.68 737.163 1082.48 740H1068.71M1089.06 729.009L1115.36 738.43C1126.89 726.991 1143.65 703.115 1151.14 672.483M1089.06 729.009C1096 714.314 1101.13 691.216 1095.9 662.434M1095.9 662.434C1097.26 659.742 1098.64 657.162 1100.02 654.691M1100.02 654.691L1131.01 648.303L1151.14 672.483M1100.02 654.691C1103.37 648.695 1106.75 643.339 1110.1 638.568M1151.14 672.483C1152.53 666.775 1153.6 660.832 1154.26 654.691M1110.1 638.568C1126.64 615.035 1142.4 605.733 1149.49 604.024C1154.89 621.805 1155.95 638.902 1154.26 654.691M1110.1 638.568L1137.28 632.287L1154.26 654.691" stroke="black" stroke-width="3"/>
<path d="M758.647 382C741.323 402.098 713.812 458.435 742.366 523H757.708M758.647 382C773.519 405.09 781.455 426.493 784.899 445.434M758.647 382L757.708 523M778.062 512.009C775.956 516.474 773.683 520.163 771.485 523H757.708M778.062 512.009L804.36 521.43C815.89 509.991 832.65 486.115 840.136 455.483M778.062 512.009C784.996 497.314 790.133 474.216 784.899 445.434M784.899 445.434C786.263 442.742 787.638 440.162 789.018 437.691M789.018 437.691L820.015 431.303L840.136 455.483M789.018 437.691C792.368 431.695 795.752 426.339 799.104 421.568M840.136 455.483C841.532 449.775 842.605 443.832 843.262 437.691M799.104 421.568C815.639 398.035 831.404 388.733 838.488 387.024C843.892 404.805 844.952 421.902 843.262 437.691M799.104 421.568L826.277 415.287L843.262 437.691" stroke="black" stroke-width="3"/>
<path d="M706.554 168C700.172 175.412 690.036 196.189 700.556 220H706.208M706.554 168C712.033 176.515 714.957 184.409 716.226 191.394M706.554 168L706.208 220M713.707 215.947C712.931 217.593 712.094 218.954 711.284 220H706.208M713.707 215.947L723.396 219.421C727.644 215.202 733.818 206.397 736.577 195.1M713.707 215.947C716.262 210.527 718.154 202.009 716.226 191.394M716.226 191.394C716.729 190.401 717.235 189.45 717.744 188.539M717.744 188.539L729.163 186.183L736.577 195.1M717.744 188.539C718.978 186.327 720.224 184.352 721.459 182.592M736.577 195.1C737.091 192.995 737.486 190.803 737.728 188.539M721.459 182.592C727.551 173.913 733.359 170.483 735.969 169.853C737.96 176.41 738.351 182.716 737.728 188.539M721.459 182.592L731.47 180.276L737.728 188.539" stroke="black" stroke-width="2"/>
<path d="M909.554 182C903.172 189.412 893.036 210.189 903.556 234H909.208M909.554 182C915.033 190.515 917.957 198.409 919.226 205.394M909.554 182L909.208 234M916.707 229.947C915.931 231.593 915.094 232.954 914.284 234H909.208M916.707 229.947L926.396 233.421C930.644 229.202 936.818 220.397 939.577 209.1M916.707 229.947C919.262 224.527 921.154 216.009 919.226 205.394M919.226 205.394C919.729 204.401 920.235 203.45 920.744 202.539M920.744 202.539L932.163 200.183L939.577 209.1M920.744 202.539C921.978 200.327 923.224 198.352 924.459 196.592M939.577 209.1C940.091 206.995 940.486 204.803 940.728 202.539M924.459 196.592C930.551 187.913 936.359 184.483 938.969 183.853C940.96 190.41 941.351 196.716 940.728 202.539M924.459 196.592L934.47 194.276L940.728 202.539" stroke="black" stroke-width="2"/>
<path d="M604.554 541C598.172 548.412 588.036 569.189 598.556 593H604.208M604.554 541C610.033 549.515 612.957 557.409 614.226 564.394M604.554 541L604.208 593M611.707 588.947C610.931 590.593 610.094 591.954 609.284 593H604.208M611.707 588.947L621.396 592.421C625.644 588.202 631.818 579.397 634.577 568.1M611.707 588.947C614.262 583.527 616.154 575.009 614.226 564.394M614.226 564.394C614.729 563.401 615.235 562.45 615.744 561.539M615.744 561.539L627.163 559.183L634.577 568.1M615.744 561.539C616.978 559.327 618.224 557.352 619.459 555.592M634.577 568.1C635.091 565.995 635.486 563.803 635.728 561.539M619.459 555.592C625.551 546.913 631.359 543.483 633.969 542.853C635.96 549.41 636.351 555.716 635.728 561.539M619.459 555.592L629.47 553.276L635.728 561.539" stroke="black" stroke-width="2"/>
<path d="M1407.55 754C1401.17 761.412 1391.04 782.189 1401.56 806H1407.21M1407.55 754C1413.03 762.515 1415.96 770.409 1417.23 777.394M1407.55 754L1407.21 806M1414.71 801.947C1413.93 803.593 1413.09 804.954 1412.28 806H1407.21M1414.71 801.947L1424.4 805.421C1428.64 801.202 1434.82 792.397 1437.58 781.1M1414.71 801.947C1417.26 796.527 1419.15 788.009 1417.23 777.394M1417.23 777.394C1417.73 776.401 1418.23 775.45 1418.74 774.539M1418.74 774.539L1430.16 772.183L1437.58 781.1M1418.74 774.539C1419.98 772.327 1421.22 770.352 1422.46 768.592M1437.58 781.1C1438.09 778.995 1438.49 776.803 1438.73 774.539M1422.46 768.592C1428.55 759.913 1434.36 756.483 1436.97 755.853C1438.96 762.41 1439.35 768.716 1438.73 774.539M1422.46 768.592L1432.47 766.276L1438.73 774.539" stroke="black" stroke-width="2"/>
<path d="M927.554 565C921.172 572.412 911.036 593.189 921.556 617H927.208M927.554 565C933.033 573.515 935.957 581.409 937.226 588.394M927.554 565L927.208 617M934.707 612.947C933.931 614.593 933.094 615.954 932.284 617H927.208M934.707 612.947L944.396 616.421C948.644 612.202 954.818 603.397 957.577 592.1M934.707 612.947C937.262 607.527 939.154 599.009 937.226 588.394M937.226 588.394C937.729 587.401 938.235 586.45 938.744 585.539M938.744 585.539L950.163 583.183L957.577 592.1M938.744 585.539C939.978 583.327 941.224 581.352 942.459 579.592M957.577 592.1C958.091 589.995 958.486 587.803 958.728 585.539M942.459 579.592C948.551 570.913 954.359 567.483 956.969 566.853C958.96 573.41 959.351 579.716 958.728 585.539M942.459 579.592L952.47 577.276L958.728 585.539" stroke="black" stroke-width="2"/>
<path d="M1407.55 204C1401.17 211.412 1391.04 232.189 1401.56 256H1407.21M1407.55 204C1413.03 212.515 1415.96 220.409 1417.23 227.394M1407.55 204L1407.21 256M1414.71 251.947C1413.93 253.593 1413.09 254.954 1412.28 256H1407.21M1414.71 251.947L1424.4 255.421C1428.64 251.202 1434.82 242.397 1437.58 231.1M1414.71 251.947C1417.26 246.527 1419.15 238.009 1417.23 227.394M1417.23 227.394C1417.73 226.401 1418.23 225.45 1418.74 224.539M1418.74 224.539L1430.16 222.183L1437.58 231.1M1418.74 224.539C1419.98 222.327 1421.22 220.352 1422.46 218.592M1437.58 231.1C1438.09 228.995 1438.49 226.803 1438.73 224.539M1422.46 218.592C1428.55 209.913 1434.36 206.483 1436.97 205.853C1438.96 212.41 1439.35 218.716 1438.73 224.539M1422.46 218.592L1432.47 216.276L1438.73 224.539" stroke="black" stroke-width="2"/>
<path d="M890.554 56C884.172 63.412 874.036 84.1889 884.556 108H890.208M890.554 56C896.033 64.5154 898.957 72.4087 900.226 79.3942M890.554 56L890.208 108M897.707 103.947C896.931 105.593 896.094 106.954 895.284 108H890.208M897.707 103.947L907.396 107.421C911.644 103.202 917.818 94.397 920.577 83.1002M897.707 103.947C900.262 98.5272 902.154 90.0088 900.226 79.3942M900.226 79.3942C900.729 78.4013 901.235 77.45 901.744 76.5387M901.744 76.5387L913.163 74.1826L920.577 83.1002M901.744 76.5387C902.978 74.3273 904.224 72.352 905.459 70.5924M920.577 83.1002C921.091 80.995 921.486 78.8033 921.728 76.5387M905.459 70.5924C911.551 61.9135 917.359 58.4833 919.969 57.853C921.96 64.4102 922.351 70.7156 921.728 76.5387M905.459 70.5924L915.47 68.2762L921.728 76.5387" stroke="black" stroke-width="2"/>
<path d="M164.554 478C158.172 485.412 148.036 506.189 158.556 530H164.208M164.554 478C170.033 486.515 172.957 494.409 174.226 501.394M164.554 478L164.208 530M171.707 525.947C170.931 527.593 170.094 528.954 169.284 530H164.208M171.707 525.947L181.396 529.421C185.644 525.202 191.818 516.397 194.577 505.1M171.707 525.947C174.262 520.527 176.154 512.009 174.226 501.394M174.226 501.394C174.729 500.401 175.235 499.45 175.744 498.539M175.744 498.539L187.163 496.183L194.577 505.1M175.744 498.539C176.978 496.327 178.224 494.352 179.459 492.592M194.577 505.1C195.091 502.995 195.486 500.803 195.728 498.539M179.459 492.592C185.551 483.913 191.359 480.483 193.969 479.853C195.96 486.41 196.351 492.716 195.728 498.539M179.459 492.592L189.47 490.276L195.728 498.539" stroke="black" stroke-width="2"/>
<circle cx="1260.84" cy="33.0402" r="21.8401" fill="#DDC337" fill-opacity="0.5"/>
<line x1="1235.73" y1="9.43231" x2="1240.77" y2="14.4723" stroke="#91492B" stroke-opacity="0.5" stroke-width="5"/>
<line x1="1260.54" x2="1260.54" y2="6.16003" stroke="#91492B" stroke-opacity="0.5" stroke-width="5"/>
<line x1="1225" y1="32.7802" x2="1231.72" y2="32.7802" stroke="#91492B" stroke-opacity="0.5" stroke-width="5"/>
<line x1="1260.54" y1="61.6003" x2="1260.54" y2="68.7279" stroke="#91492B" stroke-opacity="0.5" stroke-width="5"/>
<line x1="1233.98" y1="57.4917" x2="1239.02" y2="53.0117" stroke="#91492B" stroke-opacity="0.5" stroke-width="5"/>
<line x1="1286.6" y1="32.7802" x2="1293.73" y2="32.7802" stroke="#91492B" stroke-opacity="0.5" stroke-width="5"/>
<line x1="1279.41" y1="53.1125" x2="1284.45" y2="58.1525" stroke="#91492B" stroke-opacity="0.5" stroke-width="5"/>
<line x1="1284.27" y1="10.6349" x2="1279.5" y2="15.9265" stroke="#91492B" stroke-opacity="0.5" stroke-width="5"/>
<circle cx="668.84" cy="111.04" r="21.8401" fill="#DDC337" fill-opacity="0.5"/>
<line x1="643.728" y1="87.4323" x2="648.768" y2="92.4723" stroke="#91492B" stroke-opacity="0.5" stroke-width="5"/>
<line x1="668.54" y1="78" x2="668.54" y2="84.16" stroke="#91492B" stroke-opacity="0.5" stroke-width="5"/>
<line x1="633" y1="110.78" x2="639.72" y2="110.78" stroke="#91492B" stroke-opacity="0.5" stroke-width="5"/>
<line x1="668.54" y1="139.6" x2="668.54" y2="146.728" stroke="#91492B" stroke-opacity="0.5" stroke-width="5"/>
<line x1="641.979" y1="135.492" x2="647.019" y2="131.012" stroke="#91492B" stroke-opacity="0.5" stroke-width="5"/>
<line x1="694.6" y1="110.78" x2="701.728" y2="110.78" stroke="#91492B" stroke-opacity="0.5" stroke-width="5"/>
<line x1="687.408" y1="131.112" x2="692.448" y2="136.152" stroke="#91492B" stroke-opacity="0.5" stroke-width="5"/>
<line x1="692.272" y1="88.6349" x2="687.496" y2="93.9265" stroke="#91492B" stroke-opacity="0.5" stroke-width="5"/>
<circle cx="253.84" cy="203.04" r="21.8401" fill="#DDC337" fill-opacity="0.5"/>
<line x1="228.728" y1="179.432" x2="233.768" y2="184.472" stroke="#91492B" stroke-opacity="0.5" stroke-width="5"/>
<line x1="253.54" y1="170" x2="253.54" y2="176.16" stroke="#91492B" stroke-opacity="0.5" stroke-width="5"/>
<line x1="218" y1="202.78" x2="224.72" y2="202.78" stroke="#91492B" stroke-opacity="0.5" stroke-width="5"/>
<line x1="253.54" y1="231.6" x2="253.54" y2="238.728" stroke="#91492B" stroke-opacity="0.5" stroke-width="5"/>
<line x1="226.979" y1="227.492" x2="232.019" y2="223.012" stroke="#91492B" stroke-opacity="0.5" stroke-width="5"/>
<line x1="279.6" y1="202.78" x2="286.728" y2="202.78" stroke="#91492B" stroke-opacity="0.5" stroke-width="5"/>
<line x1="272.408" y1="223.112" x2="277.448" y2="228.152" stroke="#91492B" stroke-opacity="0.5" stroke-width="5"/>
<line x1="277.272" y1="180.635" x2="272.496" y2="185.926" stroke="#91492B" stroke-opacity="0.5" stroke-width="5"/>
<circle cx="78.8401" cy="271.04" r="21.8401" fill="#DDC337" fill-opacity="0.5"/>
<line x1="53.7277" y1="247.432" x2="58.7677" y2="252.472" stroke="#91492B" stroke-opacity="0.5" stroke-width="5"/>
<line x1="78.54" y1="238" x2="78.54" y2="244.16" stroke="#91492B" stroke-opacity="0.5" stroke-width="5"/>
<line x1="43" y1="270.78" x2="49.72" y2="270.78" stroke="#91492B" stroke-opacity="0.5" stroke-width="5"/>
<line x1="78.54" y1="299.6" x2="78.54" y2="306.728" stroke="#91492B" stroke-opacity="0.5" stroke-width="5"/>
<line x1="51.9792" y1="295.492" x2="57.0192" y2="291.012" stroke="#91492B" stroke-opacity="0.5" stroke-width="5"/>
<line x1="104.6" y1="270.78" x2="111.728" y2="270.78" stroke="#91492B" stroke-opacity="0.5" stroke-width="5"/>
<line x1="97.4079" y1="291.112" x2="102.448" y2="296.152" stroke="#91492B" stroke-opacity="0.5" stroke-width="5"/>
<line x1="102.272" y1="248.635" x2="97.4962" y2="253.926" stroke="#91492B" stroke-opacity="0.5" stroke-width="5"/>
<circle cx="44.8401" cy="432.04" r="21.8401" fill="#DDC337" fill-opacity="0.5"/>
<line x1="19.7277" y1="408.432" x2="24.7677" y2="413.472" stroke="#91492B" stroke-opacity="0.5" stroke-width="5"/>
<line x1="44.54" y1="399" x2="44.54" y2="405.16" stroke="#91492B" stroke-opacity="0.5" stroke-width="5"/>
<line x1="9" y1="431.78" x2="15.72" y2="431.78" stroke="#91492B" stroke-opacity="0.5" stroke-width="5"/>
<line x1="44.54" y1="460.6" x2="44.54" y2="467.728" stroke="#91492B" stroke-opacity="0.5" stroke-width="5"/>
<line x1="17.9792" y1="456.492" x2="23.0192" y2="452.012" stroke="#91492B" stroke-opacity="0.5" stroke-width="5"/>
<line x1="70.6003" y1="431.78" x2="77.728" y2="431.78" stroke="#91492B" stroke-opacity="0.5" stroke-width="5"/>
<line x1="63.4079" y1="452.112" x2="68.4479" y2="457.152" stroke="#91492B" stroke-opacity="0.5" stroke-width="5"/>
<line x1="68.2715" y1="409.635" x2="63.4962" y2="414.926" stroke="#91492B" stroke-opacity="0.5" stroke-width="5"/>
<circle cx="277.84" cy="424.04" r="21.8401" fill="#DDC337" fill-opacity="0.5"/>
<line x1="252.728" y1="400.432" x2="257.768" y2="405.472" stroke="#91492B" stroke-opacity="0.5" stroke-width="5"/>
<line x1="277.54" y1="391" x2="277.54" y2="397.16" stroke="#91492B" stroke-opacity="0.5" stroke-width="5"/>
<line x1="242" y1="423.78" x2="248.72" y2="423.78" stroke="#91492B" stroke-opacity="0.5" stroke-width="5"/>
<line x1="277.54" y1="452.6" x2="277.54" y2="459.728" stroke="#91492B" stroke-opacity="0.5" stroke-width="5"/>
<line x1="250.979" y1="448.492" x2="256.019" y2="444.012" stroke="#91492B" stroke-opacity="0.5" stroke-width="5"/>
<line x1="303.6" y1="423.78" x2="310.728" y2="423.78" stroke="#91492B" stroke-opacity="0.5" stroke-width="5"/>
<line x1="296.408" y1="444.112" x2="301.448" y2="449.152" stroke="#91492B" stroke-opacity="0.5" stroke-width="5"/>
<line x1="301.272" y1="401.635" x2="296.496" y2="406.926" stroke="#91492B" stroke-opacity="0.5" stroke-width="5"/>
<circle cx="347.84" cy="75.0402" r="21.8401" fill="#DDC337" fill-opacity="0.5"/>
<line x1="322.728" y1="51.4323" x2="327.768" y2="56.4723" stroke="#91492B" stroke-opacity="0.5" stroke-width="5"/>
<line x1="347.54" y1="42" x2="347.54" y2="48.16" stroke="#91492B" stroke-opacity="0.5" stroke-width="5"/>
<line x1="312" y1="74.7802" x2="318.72" y2="74.7802" stroke="#91492B" stroke-opacity="0.5" stroke-width="5"/>
<line x1="347.54" y1="103.6" x2="347.54" y2="110.728" stroke="#91492B" stroke-opacity="0.5" stroke-width="5"/>
<line x1="320.979" y1="99.4917" x2="326.019" y2="95.0117" stroke="#91492B" stroke-opacity="0.5" stroke-width="5"/>
<line x1="373.6" y1="74.7802" x2="380.728" y2="74.7802" stroke="#91492B" stroke-opacity="0.5" stroke-width="5"/>
<line x1="366.408" y1="95.1125" x2="371.448" y2="100.153" stroke="#91492B" stroke-opacity="0.5" stroke-width="5"/>
<line x1="371.272" y1="52.6349" x2="366.496" y2="57.9265" stroke="#91492B" stroke-opacity="0.5" stroke-width="5"/>
<circle cx="994.84" cy="42.0402" r="21.8401" fill="#DDC337" fill-opacity="0.5"/>
<line x1="969.728" y1="18.4323" x2="974.768" y2="23.4723" stroke="#91492B" stroke-opacity="0.5" stroke-width="5"/>
<line x1="994.54" y1="9" x2="994.54" y2="15.16" stroke="#91492B" stroke-opacity="0.5" stroke-width="5"/>
<line x1="959" y1="41.7802" x2="965.72" y2="41.7802" stroke="#91492B" stroke-opacity="0.5" stroke-width="5"/>
<line x1="994.54" y1="70.6003" x2="994.54" y2="77.7279" stroke="#91492B" stroke-opacity="0.5" stroke-width="5"/>
<line x1="967.979" y1="66.4917" x2="973.019" y2="62.0117" stroke="#91492B" stroke-opacity="0.5" stroke-width="5"/>
<line x1="1020.6" y1="41.7802" x2="1027.73" y2="41.7802" stroke="#91492B" stroke-opacity="0.5" stroke-width="5"/>
<line x1="1013.41" y1="62.1125" x2="1018.45" y2="67.1525" stroke="#91492B" stroke-opacity="0.5" stroke-width="5"/>
<line x1="1018.27" y1="19.6349" x2="1013.5" y2="24.9265" stroke="#91492B" stroke-opacity="0.5" stroke-width="5"/>
<circle cx="643.84" cy="437.04" r="21.8401" fill="#DDC337" fill-opacity="0.5"/>
<line x1="618.728" y1="413.432" x2="623.768" y2="418.472" stroke="#91492B" stroke-opacity="0.5" stroke-width="5"/>
<line x1="643.54" y1="404" x2="643.54" y2="410.16" stroke="#91492B" stroke-opacity="0.5" stroke-width="5"/>
<line x1="608" y1="436.78" x2="614.72" y2="436.78" stroke="#91492B" stroke-opacity="0.5" stroke-width="5"/>
<line x1="643.54" y1="465.6" x2="643.54" y2="472.728" stroke="#91492B" stroke-opacity="0.5" stroke-width="5"/>
<line x1="616.979" y1="461.492" x2="622.019" y2="457.012" stroke="#91492B" stroke-opacity="0.5" stroke-width="5"/>
<line x1="669.6" y1="436.78" x2="676.728" y2="436.78" stroke="#91492B" stroke-opacity="0.5" stroke-width="5"/>
<line x1="662.408" y1="457.112" x2="667.448" y2="462.152" stroke="#91492B" stroke-opacity="0.5" stroke-width="5"/>
<line x1="667.272" y1="414.635" x2="662.496" y2="419.926" stroke="#91492B" stroke-opacity="0.5" stroke-width="5"/>
<circle cx="64.8401" cy="652.04" r="21.8401" fill="#DDC337" fill-opacity="0.5"/>
<line x1="39.7277" y1="628.432" x2="44.7677" y2="633.472" stroke="#91492B" stroke-opacity="0.5" stroke-width="5"/>
<line x1="64.54" y1="619" x2="64.54" y2="625.16" stroke="#91492B" stroke-opacity="0.5" stroke-width="5"/>
<line x1="29" y1="651.78" x2="35.72" y2="651.78" stroke="#91492B" stroke-opacity="0.5" stroke-width="5"/>
<line x1="64.54" y1="680.6" x2="64.54" y2="687.728" stroke="#91492B" stroke-opacity="0.5" stroke-width="5"/>
<line x1="37.9792" y1="676.492" x2="43.0192" y2="672.012" stroke="#91492B" stroke-opacity="0.5" stroke-width="5"/>
<line x1="90.6003" y1="651.78" x2="97.728" y2="651.78" stroke="#91492B" stroke-opacity="0.5" stroke-width="5"/>
<line x1="83.4079" y1="672.112" x2="88.4479" y2="677.153" stroke="#91492B" stroke-opacity="0.5" stroke-width="5"/>
<line x1="88.2715" y1="629.635" x2="83.4962" y2="634.927" stroke="#91492B" stroke-opacity="0.5" stroke-width="5"/>
<circle cx="291.84" cy="689.04" r="21.8401" fill="#DDC337" fill-opacity="0.5"/>
<line x1="266.728" y1="665.432" x2="271.768" y2="670.472" stroke="#91492B" stroke-opacity="0.5" stroke-width="5"/>
<line x1="291.54" y1="656" x2="291.54" y2="662.16" stroke="#91492B" stroke-opacity="0.5" stroke-width="5"/>
<line x1="256" y1="688.78" x2="262.72" y2="688.78" stroke="#91492B" stroke-opacity="0.5" stroke-width="5"/>
<line x1="291.54" y1="717.6" x2="291.54" y2="724.728" stroke="#91492B" stroke-opacity="0.5" stroke-width="5"/>
<line x1="264.979" y1="713.492" x2="270.019" y2="709.012" stroke="#91492B" stroke-opacity="0.5" stroke-width="5"/>
<line x1="317.6" y1="688.78" x2="324.728" y2="688.78" stroke="#91492B" stroke-opacity="0.5" stroke-width="5"/>
<line x1="310.408" y1="709.112" x2="315.448" y2="714.153" stroke="#91492B" stroke-opacity="0.5" stroke-width="5"/>
<line x1="315.272" y1="666.635" x2="310.496" y2="671.927" stroke="#91492B" stroke-opacity="0.5" stroke-width="5"/>
<circle cx="501.84" cy="608.04" r="21.8401" fill="#DDC337" fill-opacity="0.5"/>
<line x1="476.728" y1="584.432" x2="481.768" y2="589.472" stroke="#91492B" stroke-opacity="0.5" stroke-width="5"/>
<line x1="501.54" y1="575" x2="501.54" y2="581.16" stroke="#91492B" stroke-opacity="0.5" stroke-width="5"/>
<line x1="466" y1="607.78" x2="472.72" y2="607.78" stroke="#91492B" stroke-opacity="0.5" stroke-width="5"/>
<line x1="501.54" y1="636.6" x2="501.54" y2="643.728" stroke="#91492B" stroke-opacity="0.5" stroke-width="5"/>
<line x1="474.979" y1="632.492" x2="480.019" y2="628.012" stroke="#91492B" stroke-opacity="0.5" stroke-width="5"/>
<line x1="527.6" y1="607.78" x2="534.728" y2="607.78" stroke="#91492B" stroke-opacity="0.5" stroke-width="5"/>
<line x1="520.408" y1="628.112" x2="525.448" y2="633.153" stroke="#91492B" stroke-opacity="0.5" stroke-width="5"/>
<line x1="525.272" y1="585.635" x2="520.496" y2="590.927" stroke="#91492B" stroke-opacity="0.5" stroke-width="5"/>
<circle cx="1245.84" cy="174.04" r="21.8401" fill="#DDC337" fill-opacity="0.5"/>
<line x1="1220.73" y1="150.432" x2="1225.77" y2="155.472" stroke="#91492B" stroke-opacity="0.5" stroke-width="5"/>
<line x1="1245.54" y1="141" x2="1245.54" y2="147.16" stroke="#91492B" stroke-opacity="0.5" stroke-width="5"/>
<line x1="1210" y1="173.78" x2="1216.72" y2="173.78" stroke="#91492B" stroke-opacity="0.5" stroke-width="5"/>
<line x1="1245.54" y1="202.6" x2="1245.54" y2="209.728" stroke="#91492B" stroke-opacity="0.5" stroke-width="5"/>
<line x1="1218.98" y1="198.492" x2="1224.02" y2="194.012" stroke="#91492B" stroke-opacity="0.5" stroke-width="5"/>
<line x1="1271.6" y1="173.78" x2="1278.73" y2="173.78" stroke="#91492B" stroke-opacity="0.5" stroke-width="5"/>
<line x1="1264.41" y1="194.112" x2="1269.45" y2="199.152" stroke="#91492B" stroke-opacity="0.5" stroke-width="5"/>
<line x1="1269.27" y1="151.635" x2="1264.5" y2="156.926" stroke="#91492B" stroke-opacity="0.5" stroke-width="5"/>
<circle cx="1401.84" cy="144.04" r="21.8401" fill="#DDC337" fill-opacity="0.5"/>
<line x1="1376.73" y1="120.432" x2="1381.77" y2="125.472" stroke="#91492B" stroke-opacity="0.5" stroke-width="5"/>
<line x1="1401.54" y1="111" x2="1401.54" y2="117.16" stroke="#91492B" stroke-opacity="0.5" stroke-width="5"/>
<line x1="1366" y1="143.78" x2="1372.72" y2="143.78" stroke="#91492B" stroke-opacity="0.5" stroke-width="5"/>
<line x1="1401.54" y1="172.6" x2="1401.54" y2="179.728" stroke="#91492B" stroke-opacity="0.5" stroke-width="5"/>
<line x1="1374.98" y1="168.492" x2="1380.02" y2="164.012" stroke="#91492B" stroke-opacity="0.5" stroke-width="5"/>
<line x1="1427.6" y1="143.78" x2="1434.73" y2="143.78" stroke="#91492B" stroke-opacity="0.5" stroke-width="5"/>
<line x1="1420.41" y1="164.112" x2="1425.45" y2="169.152" stroke="#91492B" stroke-opacity="0.5" stroke-width="5"/>
<line x1="1425.27" y1="121.635" x2="1420.5" y2="126.926" stroke="#91492B" stroke-opacity="0.5" stroke-width="5"/>
<circle cx="1193.84" cy="526.04" r="21.8401" fill="#DDC337" fill-opacity="0.5"/>
<line x1="1168.73" y1="502.432" x2="1173.77" y2="507.472" stroke="#91492B" stroke-opacity="0.5" stroke-width="5"/>
<line x1="1193.54" y1="493" x2="1193.54" y2="499.16" stroke="#91492B" stroke-opacity="0.5" stroke-width="5"/>
<line x1="1158" y1="525.78" x2="1164.72" y2="525.78" stroke="#91492B" stroke-opacity="0.5" stroke-width="5"/>
<line x1="1193.54" y1="554.6" x2="1193.54" y2="561.728" stroke="#91492B" stroke-opacity="0.5" stroke-width="5"/>
<line x1="1166.98" y1="550.492" x2="1172.02" y2="546.012" stroke="#91492B" stroke-opacity="0.5" stroke-width="5"/>
<line x1="1219.6" y1="525.78" x2="1226.73" y2="525.78" stroke="#91492B" stroke-opacity="0.5" stroke-width="5"/>
<line x1="1212.41" y1="546.112" x2="1217.45" y2="551.153" stroke="#91492B" stroke-opacity="0.5" stroke-width="5"/>
<line x1="1217.27" y1="503.635" x2="1212.5" y2="508.927" stroke="#91492B" stroke-opacity="0.5" stroke-width="5"/>
<circle cx="1263.84" cy="398.04" r="21.8401" fill="#DDC337" fill-opacity="0.5"/>
<line x1="1238.73" y1="374.432" x2="1243.77" y2="379.472" stroke="#91492B" stroke-opacity="0.5" stroke-width="5"/>
<line x1="1263.54" y1="365" x2="1263.54" y2="371.16" stroke="#91492B" stroke-opacity="0.5" stroke-width="5"/>
<line x1="1228" y1="397.78" x2="1234.72" y2="397.78" stroke="#91492B" stroke-opacity="0.5" stroke-width="5"/>
<line x1="1263.54" y1="426.6" x2="1263.54" y2="433.728" stroke="#91492B" stroke-opacity="0.5" stroke-width="5"/>
<line x1="1236.98" y1="422.492" x2="1242.02" y2="418.012" stroke="#91492B" stroke-opacity="0.5" stroke-width="5"/>
<line x1="1289.6" y1="397.78" x2="1296.73" y2="397.78" stroke="#91492B" stroke-opacity="0.5" stroke-width="5"/>
<line x1="1282.41" y1="418.112" x2="1287.45" y2="423.152" stroke="#91492B" stroke-opacity="0.5" stroke-width="5"/>
<line x1="1287.27" y1="375.635" x2="1282.5" y2="380.926" stroke="#91492B" stroke-opacity="0.5" stroke-width="5"/>
<circle cx="1056.84" cy="541.04" r="21.8401" fill="#DDC337" fill-opacity="0.5"/>
<line x1="1031.73" y1="517.432" x2="1036.77" y2="522.472" stroke="#91492B" stroke-opacity="0.5" stroke-width="5"/>
<line x1="1056.54" y1="508" x2="1056.54" y2="514.16" stroke="#91492B" stroke-opacity="0.5" stroke-width="5"/>
<line x1="1021" y1="540.78" x2="1027.72" y2="540.78" stroke="#91492B" stroke-opacity="0.5" stroke-width="5"/>
<line x1="1056.54" y1="569.6" x2="1056.54" y2="576.728" stroke="#91492B" stroke-opacity="0.5" stroke-width="5"/>
<line x1="1029.98" y1="565.492" x2="1035.02" y2="561.012" stroke="#91492B" stroke-opacity="0.5" stroke-width="5"/>
<line x1="1082.6" y1="540.78" x2="1089.73" y2="540.78" stroke="#91492B" stroke-opacity="0.5" stroke-width="5"/>
<line x1="1075.41" y1="561.112" x2="1080.45" y2="566.153" stroke="#91492B" stroke-opacity="0.5" stroke-width="5"/>
<line x1="1080.27" y1="518.635" x2="1075.5" y2="523.927" stroke="#91492B" stroke-opacity="0.5" stroke-width="5"/>
<circle cx="1316.84" cy="779.04" r="21.8401" fill="#DDC337" fill-opacity="0.5"/>
<line x1="1291.73" y1="755.432" x2="1296.77" y2="760.472" stroke="#91492B" stroke-opacity="0.5" stroke-width="5"/>
<line x1="1316.54" y1="746" x2="1316.54" y2="752.16" stroke="#91492B" stroke-opacity="0.5" stroke-width="5"/>
<line x1="1281" y1="778.78" x2="1287.72" y2="778.78" stroke="#91492B" stroke-opacity="0.5" stroke-width="5"/>
<line x1="1316.54" y1="807.6" x2="1316.54" y2="814.728" stroke="#91492B" stroke-opacity="0.5" stroke-width="5"/>
<line x1="1289.98" y1="803.492" x2="1295.02" y2="799.012" stroke="#91492B" stroke-opacity="0.5" stroke-width="5"/>
<line x1="1342.6" y1="778.78" x2="1349.73" y2="778.78" stroke="#91492B" stroke-opacity="0.5" stroke-width="5"/>
<line x1="1335.41" y1="799.112" x2="1340.45" y2="804.153" stroke="#91492B" stroke-opacity="0.5" stroke-width="5"/>
<line x1="1340.27" y1="756.635" x2="1335.5" y2="761.927" stroke="#91492B" stroke-opacity="0.5" stroke-width="5"/>
<circle cx="743.84" cy="721.04" r="21.8401" fill="#DDC337" fill-opacity="0.5"/>
<line x1="718.728" y1="697.432" x2="723.768" y2="702.472" stroke="#91492B" stroke-opacity="0.5" stroke-width="5"/>
<line x1="743.54" y1="688" x2="743.54" y2="694.16" stroke="#91492B" stroke-opacity="0.5" stroke-width="5"/>
<line x1="708" y1="720.78" x2="714.72" y2="720.78" stroke="#91492B" stroke-opacity="0.5" stroke-width="5"/>
<line x1="743.54" y1="749.6" x2="743.54" y2="756.728" stroke="#91492B" stroke-opacity="0.5" stroke-width="5"/>
<line x1="716.979" y1="745.492" x2="722.019" y2="741.012" stroke="#91492B" stroke-opacity="0.5" stroke-width="5"/>
<line x1="769.6" y1="720.78" x2="776.728" y2="720.78" stroke="#91492B" stroke-opacity="0.5" stroke-width="5"/>
<line x1="762.408" y1="741.112" x2="767.448" y2="746.153" stroke="#91492B" stroke-opacity="0.5" stroke-width="5"/>
<line x1="767.272" y1="698.635" x2="762.496" y2="703.927" stroke="#91492B" stroke-opacity="0.5" stroke-width="5"/>
<circle cx="907.84" cy="503.04" r="21.8401" fill="#DDC337" fill-opacity="0.5"/>
<line x1="882.728" y1="479.432" x2="887.768" y2="484.472" stroke="#91492B" stroke-opacity="0.5" stroke-width="5"/>
<line x1="907.54" y1="470" x2="907.54" y2="476.16" stroke="#91492B" stroke-opacity="0.5" stroke-width="5"/>
<line x1="872" y1="502.78" x2="878.72" y2="502.78" stroke="#91492B" stroke-opacity="0.5" stroke-width="5"/>
<line x1="907.54" y1="531.6" x2="907.54" y2="538.728" stroke="#91492B" stroke-opacity="0.5" stroke-width="5"/>
<line x1="880.979" y1="527.492" x2="886.019" y2="523.012" stroke="#91492B" stroke-opacity="0.5" stroke-width="5"/>
<line x1="933.6" y1="502.78" x2="940.728" y2="502.78" stroke="#91492B" stroke-opacity="0.5" stroke-width="5"/>
<line x1="926.408" y1="523.112" x2="931.448" y2="528.153" stroke="#91492B" stroke-opacity="0.5" stroke-width="5"/>
<line x1="931.272" y1="480.635" x2="926.496" y2="485.927" stroke="#91492B" stroke-opacity="0.5" stroke-width="5"/>
<circle cx="490.84" cy="289.04" r="21.8401" fill="#DDC337" fill-opacity="0.5"/>
<line x1="465.728" y1="265.432" x2="470.768" y2="270.472" stroke="#91492B" stroke-opacity="0.5" stroke-width="5"/>
<line x1="490.54" y1="256" x2="490.54" y2="262.16" stroke="#91492B" stroke-opacity="0.5" stroke-width="5"/>
<line x1="455" y1="288.78" x2="461.72" y2="288.78" stroke="#91492B" stroke-opacity="0.5" stroke-width="5"/>
<line x1="490.54" y1="317.6" x2="490.54" y2="324.728" stroke="#91492B" stroke-opacity="0.5" stroke-width="5"/>
<line x1="463.979" y1="313.492" x2="469.019" y2="309.012" stroke="#91492B" stroke-opacity="0.5" stroke-width="5"/>
<line x1="516.6" y1="288.78" x2="523.728" y2="288.78" stroke="#91492B" stroke-opacity="0.5" stroke-width="5"/>
<line x1="509.408" y1="309.112" x2="514.448" y2="314.152" stroke="#91492B" stroke-opacity="0.5" stroke-width="5"/>
<line x1="514.272" y1="266.635" x2="509.496" y2="271.926" stroke="#91492B" stroke-opacity="0.5" stroke-width="5"/>
<path d="M512 363C514.833 362.833 520.8 364.2 522 371C522 368 524 362 532 362" stroke="black" stroke-width="3"/>
<path d="M811 564C813.833 563.833 819.8 565.2 821 572C821 569 823 563 831 563" stroke="black" stroke-width="3"/>
<path d="M1279 508C1281.83 507.833 1287.8 509.2 1289 516C1289 513 1291 507 1299 507" stroke="black" stroke-width="3"/>
<path d="M889 352C891.833 351.833 897.8 353.2 899 360C899 357 901 351 909 351" stroke="black" stroke-width="3"/>
<path d="M804 331C806.833 330.833 812.8 332.2 814 339C814 336 816 330 824 330" stroke="black" stroke-width="3"/>
<path d="M602 63C604.833 62.8333 610.8 64.2 612 71C612 68 614 62 622 62" stroke="black" stroke-width="3"/>
<path d="M1343 268C1345.83 267.833 1351.8 269.2 1353 276C1353 273 1355 267 1363 267" stroke="black" stroke-width="3"/>
<path d="M361 825C363.833 824.833 369.8 826.2 371 833C371 830 373 824 381 824" stroke="black" stroke-width="3"/>
<path d="M280 772C282.833 771.833 288.8 773.2 290 780C290 777 292 771 300 771" stroke="black" stroke-width="3"/>
<path d="M342 327C344.833 326.833 350.8 328.2 352 335C352 332 354 326 362 326" stroke="black" stroke-width="3"/>
<path d="M26 208C28.8333 207.833 34.8 209.2 36 216C36 213 38 207 46 207" stroke="black" stroke-width="3"/>
<path d="M811 650C813.833 649.833 819.8 651.2 821 658C821 655 823 649 831 649" stroke="black" stroke-width="3"/>
<path d="M527 383.555C531.392 383.296 540.64 385.422 542.5 396C542.5 391.333 545.6 382 558 382" stroke="black" stroke-width="3"/>
<path d="M928 138.555C932.392 138.296 941.64 140.422 943.5 151C943.5 146.333 946.6 137 959 137" stroke="black" stroke-width="3"/>
<path d="M1127 781.555C1131.39 781.296 1140.64 783.422 1142.5 794C1142.5 789.333 1145.6 780 1158 780" stroke="black" stroke-width="3"/>
<path d="M717 302.555C721.392 302.296 730.64 304.422 732.5 315C732.5 310.333 735.6 301 748 301" stroke="black" stroke-width="3"/>
<path d="M627 260.555C631.392 260.296 640.64 262.422 642.5 273C642.5 268.333 645.6 259 658 259" stroke="black" stroke-width="3"/>
<path d="M749 90.5555C753.392 90.2962 762.64 92.4222 764.5 103C764.5 98.3333 767.6 89 780 89" stroke="black" stroke-width="3"/>
<path d="M337 748.555C341.392 748.296 350.64 750.422 352.5 761C352.5 756.333 355.6 747 368 747" stroke="black" stroke-width="3"/>
<path d="M496 498.555C500.392 498.296 509.64 500.422 511.5 511C511.5 506.333 514.6 497 527 497" stroke="black" stroke-width="3"/>
<path d="M729 633.555C733.392 633.296 742.64 635.422 744.5 646C744.5 641.333 747.6 632 760 632" stroke="black" stroke-width="3"/>
<path d="M1470 320.555C1474.39 320.296 1483.64 322.422 1485.5 333C1485.5 328.333 1488.6 319 1501 319" stroke="black" stroke-width="3"/>
<path d="M1152 335.555C1156.39 335.296 1165.64 337.422 1167.5 348C1167.5 343.333 1170.6 334 1183 334" stroke="black" stroke-width="3"/>
<path d="M1307 475.555C1311.39 475.296 1320.64 477.422 1322.5 488C1322.5 483.333 1325.6 474 1338 474" stroke="black" stroke-width="3"/>
<path d="M975 622.555C979.392 622.296 988.64 624.422 990.5 635C990.5 630.333 993.6 621 1006 621" stroke="black" stroke-width="3"/>
<path d="M730 790.555C734.392 790.296 743.64 792.422 745.5 803C745.5 798.333 748.6 789 761 789" stroke="black" stroke-width="3"/>
<path d="M384 302.555C388.392 302.296 397.64 304.422 399.5 315C399.5 310.333 402.6 301 415 301" stroke="black" stroke-width="3"/>
<path d="M141 54.5555C145.392 54.2962 154.64 56.4222 156.5 67C156.5 62.3333 159.6 53 172 53" stroke="black" stroke-width="3"/>
<path d="M218 86.5555C222.392 86.2962 231.64 88.4222 233.5 99C233.5 94.3333 236.6 85 249 85" stroke="black" stroke-width="3"/>
<path d="M436 369.333C442.517 368.944 456.24 372.133 459 388C459 381 463.6 367 482 367" stroke="black" stroke-width="3"/>
<path d="M20 33.3332C26.5167 32.9444 40.24 36.1333 43 52C43 45 47.6 31 66 31" stroke="black" stroke-width="3"/>
<path d="M1160 80.3332C1166.52 79.9444 1180.24 83.1333 1183 99C1183 92 1187.6 78 1206 78" stroke="black" stroke-width="3"/>
<path d="M187 715.333C193.517 714.944 207.24 718.133 210 734C210 727 214.6 713 233 713" stroke="black" stroke-width="3"/>
<path d="M654 672.333C660.517 671.944 674.24 675.133 677 691C677 684 681.6 670 700 670" stroke="black" stroke-width="3"/>
<path d="M1450 532.333C1456.52 531.944 1470.24 535.133 1473 551C1473 544 1477.6 530 1496 530" stroke="black" stroke-width="3"/>
<path d="M1045 826.333C1051.52 825.944 1065.24 829.133 1068 845C1068 838 1072.6 824 1091 824" stroke="black" stroke-width="3"/>
<path d="M348 460.333C354.517 459.944 368.24 463.133 371 479C371 472 375.6 458 394 458" stroke="black" stroke-width="3"/>
<path d="M696 590.333C702.517 589.944 716.24 593.133 719 609C719 602 723.6 588 742 588" stroke="black" stroke-width="3"/>
<path d="M1423 275.333C1429.52 274.944 1443.24 278.133 1446 294C1446 287 1450.6 273 1469 273" stroke="black" stroke-width="3"/>
<path d="M1098 273.333C1104.52 272.944 1118.24 276.133 1121 292C1121 285 1125.6 271 1144 271" stroke="black" stroke-width="3"/>
<path d="M963 697.333C969.517 696.944 983.24 700.133 986 716C986 709 990.6 695 1009 695" stroke="black" stroke-width="3"/>
<path d="M390 731.333C396.517 730.944 410.24 734.133 413 750C413 743 417.6 729 436 729" stroke="black" stroke-width="3"/>
<path d="M542 221.333C548.517 220.944 562.24 224.133 565 240C565 233 569.6 219 588 219" stroke="black" stroke-width="3"/>
<path d="M853 294.333C859.517 293.944 873.24 297.133 876 313C876 306 880.6 292 899 292" stroke="black" stroke-width="3"/>
<path d="M1297 207.333C1303.52 206.944 1317.24 210.133 1320 226C1320 219 1324.6 205 1343 205" stroke="black" stroke-width="3"/>
<path d="M62 569.333C68.5167 568.944 82.24 572.133 85 588C85 581 89.6 567 108 567" stroke="black" stroke-width="3"/>
<path d="M292 310.333C298.517 309.944 312.24 313.133 315 329C315 322 319.6 308 338 308" stroke="black" stroke-width="3"/>
<path d="M1198 749.333C1204.52 748.944 1218.24 752.133 1221 768C1221 761 1225.6 747 1244 747" stroke="black" stroke-width="3"/>
<path d="M90 210.333C96.5167 209.944 110.24 213.133 113 229C113 222 117.6 208 136 208" stroke="black" stroke-width="3"/>
<path d="M558 118.333C564.517 117.944 578.24 121.133 581 137C581 130 585.6 116 604 116" stroke="black" stroke-width="3"/>
<path d="M876 411.333C882.517 410.944 896.24 414.133 899 430C899 423 903.6 409 922 409" stroke="black" stroke-width="3"/>
<path d="M647 24.3332C653.517 23.9444 667.24 27.1333 670 43C670 36 674.6 22 693 22" stroke="black" stroke-width="3"/>
<path d="M1379 36.3332C1385.52 35.9444 1399.24 39.1333 1402 55C1402 48 1406.6 34 1425 34" stroke="black" stroke-width="3"/>
<path d="M363.684 137C356.609 145.182 345.376 168.118 357.036 194.404H363.3M363.684 137C369.756 146.4 372.997 155.114 374.403 162.825M363.684 137L363.3 194.404M371.611 189.929C370.751 191.747 369.823 193.249 368.925 194.404H363.3M371.611 189.929L382.349 193.765C387.057 189.108 393.901 179.387 396.958 166.916M371.611 189.929C374.443 183.947 376.54 174.543 374.403 162.825M374.403 162.825C374.96 161.729 375.521 160.679 376.085 159.673M376.085 159.673L388.742 157.072L396.958 166.916M376.085 159.673C377.453 157.232 378.834 155.051 380.203 153.109M396.958 166.916C397.528 164.592 397.966 162.173 398.234 159.673M380.203 153.109C386.955 143.528 393.392 139.741 396.285 139.046C398.492 146.284 398.924 153.245 398.234 159.673M380.203 153.109L391.299 150.552L398.234 159.673" stroke="#48484A" stroke-width="2"/>
<path d="M347 190.441C348.108 189.332 351.193 187.449 354.671 188.778M385.227 190.952C386.718 192.188 390.494 194.557 393.665 194.148C397.628 193.637 403.125 186.349 412.33 192.997C414.504 194.574 420.052 196.782 424.859 192.997C430.868 188.267 435.215 188.778 440.457 193.637M347 201.052C348.662 199.475 353.341 197.268 358.762 201.052C364.183 204.836 370.993 202.629 373.72 201.052C375.681 199.56 380.317 197.6 385.227 201.18C387.102 203.609 392.872 207.24 398.906 202.842C404.941 198.444 410.37 201.009 412.33 202.842C414.504 204.589 420.052 207.035 424.859 202.842C430.868 197.6 437.261 200.285 440.457 204.248M347 211.152C349.301 209.788 354.875 207.879 358.762 211.152C361.575 212.303 365.41 217.416 373.72 211.152C375.51 211.152 377.3 207.956 383.82 211.152C386.761 213.965 394.304 218.209 400.952 212.686C402.401 211.621 406.168 210.129 409.646 212.686C412.501 215.286 419.848 218.925 426.394 212.686C428.951 210.811 435.343 208.723 440.457 215.371" stroke="#3498DB" stroke-width="2"/>
<path d="M77.6837 76C70.6095 84.1823 59.3759 107.118 71.0356 133.404H77.3002M77.6837 76C83.7562 85.4003 86.9967 94.1139 88.4032 101.825M77.6837 76L77.3002 133.404M85.6115 128.929C84.7512 130.747 83.8231 132.249 82.9255 133.404H77.3002M85.6115 128.929L96.3495 132.765C101.058 128.108 107.901 118.387 110.958 105.916M85.6115 128.929C88.4428 122.947 90.5404 113.543 88.4032 101.825M88.4032 101.825C88.9602 100.729 89.5214 99.679 90.085 98.673M90.085 98.673L102.742 96.0721L110.958 105.916M90.085 98.673C91.4527 96.2318 92.8345 94.0512 94.2033 92.1088M110.958 105.916C111.528 103.592 111.966 101.173 112.234 98.673M94.2033 92.1088C100.955 82.528 107.392 78.7413 110.285 78.0456C112.492 85.2842 112.925 92.2448 112.234 98.673M94.2033 92.1088L105.299 89.5519L112.234 98.673" stroke="#48484A" stroke-width="2"/>
<path d="M61 129.441C62.108 128.332 65.1934 126.449 68.6709 127.778M99.2265 129.952C100.718 131.188 104.494 133.557 107.665 133.148C111.628 132.637 117.125 125.349 126.33 131.997C128.504 133.574 134.052 135.782 138.859 131.997C144.868 127.267 149.215 127.778 154.457 132.637M61 140.052C62.662 138.475 67.3413 136.268 72.762 140.052C78.1828 143.836 84.9928 141.629 87.7202 140.052C89.6806 138.56 94.3172 136.6 99.2265 140.18C101.102 142.609 106.872 146.24 112.906 141.842C118.941 137.444 124.37 140.009 126.33 141.842C128.504 143.589 134.052 146.035 138.859 141.842C144.868 136.6 151.261 139.285 154.457 143.248M61 150.152C63.3013 148.788 68.8754 146.879 72.762 150.152C75.5747 151.303 79.4101 156.416 87.7202 150.152C89.5101 150.152 91.3 146.956 97.8202 150.152C100.761 152.965 108.304 157.209 114.952 151.686C116.401 150.621 120.168 149.129 123.646 151.686C126.501 154.286 133.848 157.925 140.394 151.686C142.951 149.811 149.343 147.723 154.457 154.371" stroke="#3498DB" stroke-width="2"/>
<path d="M300.455 497C287.966 511.446 268.133 551.94 288.718 598.347H299.778M300.455 497C311.176 513.596 316.898 528.98 319.381 542.595M300.455 497L299.778 598.347M314.452 590.447C312.933 593.657 311.295 596.308 309.71 598.347H299.778M314.452 590.447L333.41 597.219C341.722 588.997 353.805 571.835 359.202 549.818M314.452 590.447C319.451 579.885 323.154 563.283 319.381 542.595M319.381 542.595C320.364 540.66 321.355 538.806 322.35 537.03M322.35 537.03L344.696 532.438L359.202 549.818M322.35 537.03C324.765 532.72 327.204 528.87 329.621 525.44M359.202 549.818C360.208 545.715 360.982 541.443 361.455 537.03M329.621 525.44C341.541 508.525 352.906 501.84 358.014 500.611C361.91 513.391 362.674 525.681 361.455 537.03M329.621 525.44L349.211 520.926L361.455 537.03" stroke="#48484A" stroke-width="2"/>
<path d="M271 591.35C272.956 589.394 278.404 586.068 284.543 588.416M338.49 592.253C341.123 594.435 347.789 598.618 353.387 597.896C360.384 596.993 370.09 584.127 386.342 595.865C390.179 598.648 399.975 602.546 408.462 595.865C419.071 587.513 426.746 588.416 436 596.993M271 610.085C273.934 607.301 282.196 603.404 291.766 610.085C301.337 616.766 313.36 612.869 318.175 610.085C321.636 607.451 329.822 603.99 338.49 610.311C341.8 614.599 351.988 621.01 362.642 613.245C373.295 605.48 382.881 610.01 386.342 613.245C390.179 616.33 399.975 620.648 408.462 613.245C419.071 603.99 430.357 608.731 436 615.728M271 627.917C275.063 625.509 284.904 622.138 291.766 627.917C296.732 629.948 303.503 638.977 318.175 627.917C321.335 627.917 324.495 622.274 336.007 627.917C341.198 632.882 354.516 640.376 366.253 630.625C368.811 628.744 375.462 626.111 381.602 630.625C386.643 635.215 399.614 641.64 411.171 630.625C415.685 627.315 426.971 623.628 436 635.365" stroke="#3498DB" stroke-width="2"/>
<path d="M1020.46 318C1007.97 332.446 988.133 372.94 1008.72 419.347H1019.78M1020.46 318C1031.18 334.596 1036.9 349.98 1039.38 363.595M1020.46 318L1019.78 419.347M1034.45 411.447C1032.93 414.657 1031.29 417.308 1029.71 419.347H1019.78M1034.45 411.447L1053.41 418.219C1061.72 409.997 1073.8 392.835 1079.2 370.818M1034.45 411.447C1039.45 400.885 1043.15 384.283 1039.38 363.595M1039.38 363.595C1040.36 361.66 1041.36 359.806 1042.35 358.03M1042.35 358.03L1064.7 353.438L1079.2 370.818M1042.35 358.03C1044.76 353.72 1047.2 349.87 1049.62 346.44M1079.2 370.818C1080.21 366.715 1080.98 362.443 1081.46 358.03M1049.62 346.44C1061.54 329.525 1072.91 322.84 1078.01 321.611C1081.91 334.391 1082.67 346.681 1081.46 358.03M1049.62 346.44L1069.21 341.926L1081.46 358.03" stroke="#48484A" stroke-width="2"/>
<path d="M991 412.35C992.956 410.394 998.404 407.068 1004.54 409.416M1058.49 413.253C1061.12 415.435 1067.79 419.618 1073.39 418.896C1080.38 417.993 1090.09 405.127 1106.34 416.865C1110.18 419.648 1119.98 423.546 1128.46 416.865C1139.07 408.513 1146.75 409.416 1156 417.993M991 431.085C993.934 428.301 1002.2 424.404 1011.77 431.085C1021.34 437.766 1033.36 433.869 1038.18 431.085C1041.64 428.451 1049.82 424.99 1058.49 431.311C1061.8 435.599 1071.99 442.01 1082.64 434.245C1093.3 426.48 1102.88 431.01 1106.34 434.245C1110.18 437.33 1119.98 441.648 1128.46 434.245C1139.07 424.99 1150.36 429.73 1156 436.728M991 448.917C995.063 446.509 1004.9 443.138 1011.77 448.917C1016.73 450.948 1023.5 459.977 1038.18 448.917C1041.34 448.917 1044.5 443.274 1056.01 448.917C1061.2 453.882 1074.52 461.376 1086.25 451.625C1088.81 449.744 1095.46 447.111 1101.6 451.625C1106.64 456.215 1119.61 462.64 1131.17 451.625C1135.69 448.315 1146.97 444.628 1156 456.365" stroke="#3498DB" stroke-width="2"/>
<path d="M1273.46 548C1260.97 562.446 1241.13 602.94 1261.72 649.347H1272.78M1273.46 548C1284.18 564.596 1289.9 579.98 1292.38 593.595M1273.46 548L1272.78 649.347M1287.45 641.447C1285.93 644.657 1284.29 647.308 1282.71 649.347H1272.78M1287.45 641.447L1306.41 648.219C1314.72 639.997 1326.8 622.835 1332.2 600.818M1287.45 641.447C1292.45 630.885 1296.15 614.283 1292.38 593.595M1292.38 593.595C1293.36 591.66 1294.36 589.806 1295.35 588.03M1295.35 588.03L1317.7 583.438L1332.2 600.818M1295.35 588.03C1297.76 583.72 1300.2 579.87 1302.62 576.44M1332.2 600.818C1333.21 596.715 1333.98 592.443 1334.46 588.03M1302.62 576.44C1314.54 559.525 1325.91 552.84 1331.01 551.611C1334.91 564.391 1335.67 576.681 1334.46 588.03M1302.62 576.44L1322.21 571.926L1334.46 588.03" stroke="#48484A" stroke-width="2"/>
<path d="M1244 642.35C1245.96 640.394 1251.4 637.068 1257.54 639.416M1311.49 643.253C1314.12 645.435 1320.79 649.618 1326.39 648.896C1333.38 647.993 1343.09 635.127 1359.34 646.865C1363.18 649.648 1372.98 653.546 1381.46 646.865C1392.07 638.513 1399.75 639.416 1409 647.993M1244 661.085C1246.93 658.301 1255.2 654.404 1264.77 661.085C1274.34 667.766 1286.36 663.869 1291.18 661.085C1294.64 658.451 1302.82 654.99 1311.49 661.311C1314.8 665.599 1324.99 672.01 1335.64 664.245C1346.3 656.48 1355.88 661.01 1359.34 664.245C1363.18 667.33 1372.98 671.648 1381.46 664.245C1392.07 654.99 1403.36 659.731 1409 666.728M1244 678.917C1248.06 676.509 1257.9 673.138 1264.77 678.917C1269.73 680.948 1276.5 689.977 1291.18 678.917C1294.34 678.917 1297.5 673.274 1309.01 678.917C1314.2 683.882 1327.52 691.376 1339.25 681.625C1341.81 679.744 1348.46 677.111 1354.6 681.625C1359.64 686.215 1372.61 692.64 1384.17 681.625C1388.69 678.315 1399.97 674.628 1409 686.365" stroke="#3498DB" stroke-width="2"/>
<path d="M855.455 674C842.966 688.446 823.133 728.94 843.718 775.347H854.778M855.455 674C866.176 690.596 871.898 705.98 874.381 719.595M855.455 674L854.778 775.347M869.452 767.447C867.933 770.657 866.295 773.308 864.71 775.347H854.778M869.452 767.447L888.41 774.219C896.722 765.997 908.805 748.835 914.202 726.818M869.452 767.447C874.451 756.885 878.154 740.283 874.381 719.595M874.381 719.595C875.364 717.66 876.355 715.806 877.35 714.03M877.35 714.03L899.696 709.438L914.202 726.818M877.35 714.03C879.765 709.72 882.204 705.87 884.621 702.44M914.202 726.818C915.208 722.715 915.982 718.443 916.455 714.03M884.621 702.44C896.541 685.525 907.906 678.84 913.014 677.611C916.91 690.391 917.674 702.681 916.455 714.03M884.621 702.44L904.211 697.926L916.455 714.03" stroke="#48484A" stroke-width="2"/>
<path d="M826 768.35C827.956 766.394 833.404 763.068 839.543 765.416M893.49 769.253C896.123 771.435 902.789 775.618 908.387 774.896C915.384 773.993 925.09 761.127 941.342 772.865C945.179 775.648 954.975 779.546 963.462 772.865C974.071 764.513 981.746 765.416 991 773.993M826 787.085C828.934 784.301 837.196 780.404 846.766 787.085C856.337 793.766 868.36 789.869 873.175 787.085C876.636 784.451 884.822 780.99 893.49 787.311C896.8 791.599 906.988 798.01 917.642 790.245C928.295 782.48 937.881 787.01 941.342 790.245C945.179 793.33 954.975 797.648 963.462 790.245C974.071 780.99 985.357 785.731 991 792.728M826 804.917C830.063 802.509 839.904 799.138 846.766 804.917C851.732 806.948 858.503 815.977 873.175 804.917C876.335 804.917 879.495 799.274 891.007 804.917C896.198 809.882 909.516 817.376 921.253 807.625C923.811 805.744 930.462 803.111 936.602 807.625C941.643 812.215 954.614 818.64 966.171 807.625C970.685 804.315 981.971 800.628 991 812.365" stroke="#3498DB" stroke-width="2"/>
<path d="M1047.46 98C1034.97 112.446 1015.13 152.94 1035.72 199.347H1046.78M1047.46 98C1058.18 114.596 1063.9 129.98 1066.38 143.595M1047.46 98L1046.78 199.347M1061.45 191.447C1059.93 194.657 1058.29 197.308 1056.71 199.347H1046.78M1061.45 191.447L1080.41 198.219C1088.72 189.997 1100.8 172.835 1106.2 150.818M1061.45 191.447C1066.45 180.885 1070.15 164.283 1066.38 143.595M1066.38 143.595C1067.36 141.66 1068.36 139.806 1069.35 138.03M1069.35 138.03L1091.7 133.438L1106.2 150.818M1069.35 138.03C1071.76 133.72 1074.2 129.87 1076.62 126.44M1106.2 150.818C1107.21 146.715 1107.98 142.443 1108.46 138.03M1076.62 126.44C1088.54 109.525 1099.91 102.84 1105.01 101.611C1108.91 114.391 1109.67 126.681 1108.46 138.03M1076.62 126.44L1096.21 121.926L1108.46 138.03" stroke="#48484A" stroke-width="2"/>
<path d="M1018 192.35C1019.96 190.394 1025.4 187.068 1031.54 189.416M1085.49 193.253C1088.12 195.435 1094.79 199.618 1100.39 198.896C1107.38 197.993 1117.09 185.127 1133.34 196.865C1137.18 199.648 1146.98 203.546 1155.46 196.865C1166.07 188.513 1173.75 189.416 1183 197.993M1018 211.085C1020.93 208.301 1029.2 204.404 1038.77 211.085C1048.34 217.766 1060.36 213.869 1065.18 211.085C1068.64 208.451 1076.82 204.99 1085.49 211.311C1088.8 215.599 1098.99 222.01 1109.64 214.245C1120.3 206.48 1129.88 211.01 1133.34 214.245C1137.18 217.33 1146.98 221.648 1155.46 214.245C1166.07 204.99 1177.36 209.73 1183 216.728M1018 228.917C1022.06 226.509 1031.9 223.138 1038.77 228.917C1043.73 230.948 1050.5 239.977 1065.18 228.917C1068.34 228.917 1071.5 223.274 1083.01 228.917C1088.2 233.882 1101.52 241.376 1113.25 231.625C1115.81 229.744 1122.46 227.111 1128.6 231.625C1133.64 236.215 1146.61 242.64 1158.17 231.625C1162.69 228.315 1173.97 224.628 1183 236.365" stroke="#3498DB" stroke-width="2"/>
<path d="M82.4554 713C69.9657 727.446 50.1326 767.94 70.7181 814.347H81.7783M82.4554 713C93.1764 729.596 98.8976 744.98 101.381 758.595M82.4554 713L81.7783 814.347M96.452 806.447C94.9331 809.657 93.2946 812.308 91.7099 814.347H81.7783M96.452 806.447L115.41 813.219C123.722 804.997 135.805 787.835 141.202 765.818M96.452 806.447C101.451 795.885 105.154 779.283 101.381 758.595M101.381 758.595C102.364 756.66 103.355 754.806 104.35 753.03M104.35 753.03L126.696 748.438L141.202 765.818M104.35 753.03C106.765 748.72 109.204 744.87 111.621 741.44M141.202 765.818C142.208 761.715 142.982 757.443 143.455 753.03M111.621 741.44C123.541 724.525 134.906 717.84 140.014 716.611C143.91 729.391 144.674 741.681 143.455 753.03M111.621 741.44L131.211 736.926L143.455 753.03" stroke="#48484A" stroke-width="2"/>
<path d="M53 807.35C54.9562 805.394 60.4036 802.068 66.5431 804.416M120.49 808.253C123.123 810.435 129.789 814.618 135.387 813.896C142.384 812.993 152.09 800.127 168.342 811.865C172.179 814.648 181.975 818.546 190.462 811.865C201.071 803.513 208.746 804.416 218 812.993M53 826.085C55.9343 823.301 64.1956 819.404 73.7661 826.085C83.3365 832.766 95.3598 828.869 100.175 826.085C103.636 823.451 111.822 819.99 120.49 826.311C123.8 830.599 133.988 837.01 144.642 829.245C155.295 821.48 164.881 826.01 168.342 829.245C172.179 832.33 181.975 836.648 190.462 829.245C201.071 819.99 212.357 824.731 218 831.728M53 843.917C57.0629 841.509 66.9042 838.138 73.7661 843.917C78.7319 845.948 85.5034 854.977 100.175 843.917C103.335 843.917 106.495 838.274 118.007 843.917C123.198 848.882 136.516 856.376 148.253 846.625C150.811 844.744 157.462 842.111 163.602 846.625C168.643 851.215 181.614 857.64 193.171 846.625C197.685 843.315 208.971 839.628 218 851.365" stroke="#3498DB" stroke-width="2"/>
<path d="M541.455 674C528.966 688.446 509.133 728.94 529.718 775.347H540.778M541.455 674C552.176 690.596 557.898 705.98 560.381 719.595M541.455 674L540.778 775.347M555.452 767.447C553.933 770.657 552.295 773.308 550.71 775.347H540.778M555.452 767.447L574.41 774.219C582.722 765.997 594.805 748.835 600.202 726.818M555.452 767.447C560.451 756.885 564.154 740.283 560.381 719.595M560.381 719.595C561.364 717.66 562.355 715.806 563.35 714.03M563.35 714.03L585.696 709.438L600.202 726.818M563.35 714.03C565.765 709.72 568.204 705.87 570.621 702.44M600.202 726.818C601.208 722.715 601.982 718.443 602.455 714.03M570.621 702.44C582.541 685.525 593.906 678.84 599.014 677.611C602.91 690.391 603.674 702.681 602.455 714.03M570.621 702.44L590.211 697.926L602.455 714.03" stroke="#48484A" stroke-width="2"/>
<path d="M512 768.35C513.956 766.394 519.404 763.068 525.543 765.416M579.49 769.253C582.123 771.435 588.789 775.618 594.387 774.896C601.384 773.993 611.09 761.127 627.342 772.865C631.179 775.648 640.975 779.546 649.462 772.865C660.071 764.513 667.746 765.416 677 773.993M512 787.085C514.934 784.301 523.196 780.404 532.766 787.085C542.337 793.766 554.36 789.869 559.175 787.085C562.636 784.451 570.822 780.99 579.49 787.311C582.8 791.599 592.988 798.01 603.642 790.245C614.295 782.48 623.881 787.01 627.342 790.245C631.179 793.33 640.975 797.648 649.462 790.245C660.071 780.99 671.357 785.731 677 792.728M512 804.917C516.063 802.509 525.904 799.138 532.766 804.917C537.732 806.948 544.503 815.977 559.175 804.917C562.335 804.917 565.495 799.274 577.007 804.917C582.198 809.882 595.516 817.376 607.253 807.625C609.811 805.744 616.462 803.111 622.602 807.625C627.643 812.215 640.614 818.64 652.171 807.625C656.685 804.315 667.971 800.628 677 812.365" stroke="#3498DB" stroke-width="2"/>
<path d="M789.696 168C784.736 173.736 776.861 189.815 785.035 208.241H789.427M789.696 168C793.953 174.59 796.224 180.698 797.21 186.104M789.696 168L789.427 208.241M795.253 205.104C794.65 206.379 794 207.432 793.37 208.241H789.427M795.253 205.104L802.781 207.793C806.081 204.529 810.879 197.714 813.022 188.972M795.253 205.104C797.238 200.911 798.708 194.318 797.21 186.104M797.21 186.104C797.601 185.336 797.994 184.6 798.389 183.894M798.389 183.894L807.262 182.071L813.022 188.972M798.389 183.894C799.348 182.183 800.317 180.654 801.276 179.293M813.022 188.972C813.421 187.343 813.728 185.647 813.916 183.894M801.276 179.293C806.009 172.576 810.522 169.922 812.55 169.434C814.097 174.508 814.4 179.388 813.916 183.894M801.276 179.293L809.055 177.5L813.916 183.894" stroke="#48484A" stroke-width="2"/>
<path d="M778 205.463C778.777 204.686 780.94 203.366 783.377 204.298M804.798 205.821C805.843 206.688 808.49 208.349 810.713 208.062C813.491 207.704 817.345 202.595 823.798 207.255C825.322 208.361 829.211 209.908 832.581 207.255C836.794 203.939 839.841 204.298 843.515 207.704M778 212.902C779.165 211.796 782.445 210.249 786.245 212.902C790.046 215.555 794.819 214.007 796.731 212.902C798.106 211.856 801.356 210.482 804.798 212.991C806.112 214.694 810.157 217.24 814.387 214.156C818.618 211.073 822.424 212.872 823.798 214.156C825.322 215.381 829.211 217.096 832.581 214.156C836.794 210.482 841.275 212.364 843.515 215.142M778 219.982C779.613 219.026 783.521 217.688 786.245 219.982C788.217 220.789 790.906 224.374 796.731 219.982C797.986 219.982 799.241 217.741 803.812 219.982C805.873 221.954 811.161 224.929 815.821 221.058C816.837 220.311 819.478 219.265 821.916 221.058C823.918 222.88 829.068 225.431 833.657 221.058C835.449 219.743 839.93 218.279 843.515 222.94" stroke="#3498DB" stroke-width="2"/>
<path d="M1484.7 651C1479.74 656.736 1471.86 672.815 1480.04 691.241H1484.43M1484.7 651C1488.95 657.59 1491.22 663.698 1492.21 669.104M1484.7 651L1484.43 691.241M1490.25 688.104C1489.65 689.379 1489 690.432 1488.37 691.241H1484.43M1490.25 688.104L1497.78 690.793C1501.08 687.529 1505.88 680.714 1508.02 671.972M1490.25 688.104C1492.24 683.911 1493.71 677.318 1492.21 669.104M1492.21 669.104C1492.6 668.336 1492.99 667.6 1493.39 666.894M1493.39 666.894L1502.26 665.071L1508.02 671.972M1493.39 666.894C1494.35 665.183 1495.32 663.654 1496.28 662.293M1508.02 671.972C1508.42 670.343 1508.73 668.647 1508.92 666.894M1496.28 662.293C1501.01 655.576 1505.52 652.922 1507.55 652.434C1509.1 657.508 1509.4 662.388 1508.92 666.894M1496.28 662.293L1504.05 660.5L1508.92 666.894" stroke="#48484A" stroke-width="2"/>
<path d="M1473 688.463C1473.78 687.686 1475.94 686.366 1478.38 687.298M1499.8 688.821C1500.84 689.688 1503.49 691.349 1505.71 691.062C1508.49 690.704 1512.35 685.595 1518.8 690.255C1520.32 691.361 1524.21 692.908 1527.58 690.255C1531.79 686.939 1534.84 687.298 1538.52 690.704M1473 695.902C1474.17 694.796 1477.45 693.249 1481.25 695.902C1485.05 698.555 1489.82 697.007 1491.73 695.902C1493.11 694.856 1496.36 693.482 1499.8 695.991C1501.11 697.694 1505.16 700.24 1509.39 697.157C1513.62 694.073 1517.42 695.872 1518.8 697.157C1520.32 698.381 1524.21 700.096 1527.58 697.157C1531.79 693.482 1536.27 695.364 1538.52 698.142M1473 702.982C1474.61 702.026 1478.52 700.688 1481.25 702.982C1483.22 703.789 1485.91 707.374 1491.73 702.982C1492.99 702.982 1494.24 700.742 1498.81 702.982C1500.87 704.954 1506.16 707.929 1510.82 704.058C1511.84 703.311 1514.48 702.265 1516.92 704.058C1518.92 705.88 1524.07 708.431 1528.66 704.058C1530.45 702.743 1534.93 701.279 1538.52 705.94" stroke="#3498DB" stroke-width="2"/>
<path d="M466.696 57C461.736 62.736 453.861 78.8145 462.035 97.2413H466.427M466.696 57C470.953 63.5898 473.224 69.6982 474.21 75.1041M466.696 57L466.427 97.2413M472.253 94.1045C471.65 95.3787 471 96.4316 470.37 97.2413H466.427M472.253 94.1045L479.781 96.7932C483.081 93.5286 487.879 86.7143 490.022 77.9721M472.253 94.1045C474.238 89.9106 475.708 83.3184 474.21 75.1041M474.21 75.1041C474.601 74.3357 474.994 73.5995 475.389 72.8943M475.389 72.8943L484.262 71.071L490.022 77.9721M475.389 72.8943C476.348 71.1829 477.317 69.6543 478.276 68.2927M490.022 77.9721C490.421 76.3429 490.728 74.6469 490.916 72.8943M478.276 68.2927C483.009 61.5763 487.522 58.9217 489.55 58.434C491.097 63.5084 491.4 68.388 490.916 72.8943M478.276 68.2927L486.055 66.5002L490.916 72.8943" stroke="#48484A" stroke-width="2"/>
<path d="M455 94.4629C455.777 93.6862 457.94 92.3657 460.377 93.2978M481.798 94.8214C482.843 95.6878 485.49 97.3488 487.713 97.062C490.491 96.7035 494.345 91.595 500.798 96.2554C502.322 97.3608 506.211 98.9083 509.581 96.2554C513.794 92.9393 516.841 93.2978 520.515 96.7035M455 101.902C456.165 100.796 459.445 99.2489 463.245 101.902C467.046 104.555 471.819 103.007 473.731 101.902C475.106 100.856 478.356 99.4819 481.798 101.991C483.112 103.694 487.157 106.24 491.387 103.156C495.618 100.073 499.424 101.872 500.798 103.156C502.322 104.381 506.211 106.096 509.581 103.156C513.794 99.4819 518.275 101.364 520.515 104.142M455 108.982C456.613 108.026 460.521 106.688 463.245 108.982C465.217 109.789 467.906 113.374 473.731 108.982C474.986 108.982 476.241 106.741 480.812 108.982C482.873 110.954 488.161 113.929 492.821 110.058C493.837 109.311 496.478 108.265 498.916 110.058C500.918 111.88 506.068 114.431 510.657 110.058C512.449 108.743 516.93 107.279 520.515 111.94" stroke="#3498DB" stroke-width="2"/>
<path d="M155.696 611C150.736 616.736 142.861 632.815 151.035 651.241H155.427M155.696 611C159.953 617.59 162.224 623.698 163.21 629.104M155.696 611L155.427 651.241M161.253 648.104C160.65 649.379 160 650.432 159.37 651.241H155.427M161.253 648.104L168.781 650.793C172.081 647.529 176.879 640.714 179.022 631.972M161.253 648.104C163.238 643.911 164.708 637.318 163.21 629.104M163.21 629.104C163.601 628.336 163.994 627.6 164.389 626.894M164.389 626.894L173.262 625.071L179.022 631.972M164.389 626.894C165.348 625.183 166.317 623.654 167.276 622.293M179.022 631.972C179.421 630.343 179.728 628.647 179.916 626.894M167.276 622.293C172.009 615.576 176.522 612.922 178.55 612.434C180.097 617.508 180.4 622.388 179.916 626.894M167.276 622.293L175.055 620.5L179.916 626.894" stroke="#48484A" stroke-width="2"/>
<path d="M144 648.463C144.777 647.686 146.94 646.366 149.377 647.298M170.798 648.821C171.843 649.688 174.49 651.349 176.713 651.062C179.491 650.704 183.345 645.595 189.798 650.255C191.322 651.361 195.211 652.908 198.581 650.255C202.794 646.939 205.841 647.298 209.515 650.704M144 655.902C145.165 654.796 148.445 653.249 152.245 655.902C156.046 658.555 160.819 657.007 162.731 655.902C164.106 654.856 167.356 653.482 170.798 655.991C172.112 657.694 176.157 660.24 180.387 657.157C184.618 654.073 188.424 655.872 189.798 657.157C191.322 658.381 195.211 660.096 198.581 657.157C202.794 653.482 207.275 655.364 209.515 658.142M144 662.982C145.613 662.026 149.521 660.688 152.245 662.982C154.217 663.789 156.906 667.374 162.731 662.982C163.986 662.982 165.241 660.742 169.812 662.982C171.873 664.954 177.161 667.929 181.821 664.058C182.837 663.311 185.478 662.265 187.916 664.058C189.918 665.88 195.068 668.431 199.657 664.058C201.449 662.743 205.93 661.279 209.515 665.94" stroke="#3498DB" stroke-width="2"/>
<path d="M1313.7 72C1308.74 77.736 1300.86 93.8145 1309.04 112.241H1313.43M1313.7 72C1317.95 78.5898 1320.22 84.6982 1321.21 90.1041M1313.7 72L1313.43 112.241M1319.25 109.104C1318.65 110.379 1318 111.432 1317.37 112.241H1313.43M1319.25 109.104L1326.78 111.793C1330.08 108.529 1334.88 101.714 1337.02 92.9721M1319.25 109.104C1321.24 104.911 1322.71 98.3184 1321.21 90.1041M1321.21 90.1041C1321.6 89.3357 1321.99 88.5995 1322.39 87.8943M1322.39 87.8943L1331.26 86.071L1337.02 92.9721M1322.39 87.8943C1323.35 86.1829 1324.32 84.6543 1325.28 83.2927M1337.02 92.9721C1337.42 91.3429 1337.73 89.6469 1337.92 87.8943M1325.28 83.2927C1330.01 76.5763 1334.52 73.9217 1336.55 73.434C1338.1 78.5084 1338.4 83.388 1337.92 87.8943M1325.28 83.2927L1333.05 81.5002L1337.92 87.8943" stroke="#48484A" stroke-width="2"/>
<path d="M1302 109.463C1302.78 108.686 1304.94 107.366 1307.38 108.298M1328.8 109.821C1329.84 110.688 1332.49 112.349 1334.71 112.062C1337.49 111.704 1341.35 106.595 1347.8 111.255C1349.32 112.361 1353.21 113.908 1356.58 111.255C1360.79 107.939 1363.84 108.298 1367.52 111.704M1302 116.902C1303.17 115.796 1306.45 114.249 1310.25 116.902C1314.05 119.555 1318.82 118.007 1320.73 116.902C1322.11 115.856 1325.36 114.482 1328.8 116.991C1330.11 118.694 1334.16 121.24 1338.39 118.156C1342.62 115.073 1346.42 116.872 1347.8 118.156C1349.32 119.381 1353.21 121.096 1356.58 118.156C1360.79 114.482 1365.27 116.364 1367.52 119.142M1302 123.982C1303.61 123.026 1307.52 121.688 1310.25 123.982C1312.22 124.789 1314.91 128.374 1320.73 123.982C1321.99 123.982 1323.24 121.741 1327.81 123.982C1329.87 125.954 1335.16 128.929 1339.82 125.058C1340.84 124.311 1343.48 123.265 1345.92 125.058C1347.92 126.88 1353.07 129.431 1357.66 125.058C1359.45 123.743 1363.93 122.279 1367.52 126.94" stroke="#3498DB" stroke-width="2"/>
<path d="M641.696 315C636.736 320.736 628.861 336.815 637.035 355.241H641.427M641.696 315C645.953 321.59 648.224 327.698 649.21 333.104M641.696 315L641.427 355.241M647.253 352.104C646.65 353.379 646 354.432 645.37 355.241H641.427M647.253 352.104L654.781 354.793C658.081 351.529 662.879 344.714 665.022 335.972M647.253 352.104C649.238 347.911 650.708 341.318 649.21 333.104M649.21 333.104C649.601 332.336 649.994 331.6 650.389 330.894M650.389 330.894L659.262 329.071L665.022 335.972M650.389 330.894C651.348 329.183 652.317 327.654 653.276 326.293M665.022 335.972C665.421 334.343 665.728 332.647 665.916 330.894M653.276 326.293C658.009 319.576 662.522 316.922 664.55 316.434C666.097 321.508 666.4 326.388 665.916 330.894M653.276 326.293L661.055 324.5L665.916 330.894" stroke="#48484A" stroke-width="2"/>
<path d="M630 352.463C630.777 351.686 632.94 350.366 635.377 351.298M656.798 352.821C657.843 353.688 660.49 355.349 662.713 355.062C665.491 354.704 669.345 349.595 675.798 354.255C677.322 355.361 681.211 356.908 684.581 354.255C688.794 350.939 691.841 351.298 695.515 354.704M630 359.902C631.165 358.796 634.445 357.249 638.245 359.902C642.046 362.555 646.819 361.007 648.731 359.902C650.106 358.856 653.356 357.482 656.798 359.991C658.112 361.694 662.157 364.24 666.387 361.156C670.618 358.073 674.424 359.872 675.798 361.156C677.322 362.381 681.211 364.096 684.581 361.156C688.794 357.482 693.275 359.364 695.515 362.142M630 366.982C631.613 366.026 635.521 364.688 638.245 366.982C640.217 367.789 642.906 371.374 648.731 366.982C649.986 366.982 651.241 364.741 655.812 366.982C657.873 368.954 663.161 371.929 667.821 368.058C668.837 367.311 671.478 366.265 673.916 368.058C675.918 369.88 681.068 372.431 685.657 368.058C687.449 366.743 691.93 365.279 695.515 369.94" stroke="#3498DB" stroke-width="2"/>
<path d="M457.696 433C452.736 438.736 444.861 454.815 453.035 473.241H457.427M457.696 433C461.953 439.59 464.224 445.698 465.21 451.104M457.696 433L457.427 473.241M463.253 470.104C462.65 471.379 462 472.432 461.37 473.241H457.427M463.253 470.104L470.781 472.793C474.081 469.529 478.879 462.714 481.022 453.972M463.253 470.104C465.238 465.911 466.708 459.318 465.21 451.104M465.21 451.104C465.601 450.336 465.994 449.6 466.389 448.894M466.389 448.894L475.262 447.071L481.022 453.972M466.389 448.894C467.348 447.183 468.317 445.654 469.276 444.293M481.022 453.972C481.421 452.343 481.728 450.647 481.916 448.894M469.276 444.293C474.009 437.576 478.522 434.922 480.55 434.434C482.097 439.508 482.4 444.388 481.916 448.894M469.276 444.293L477.055 442.5L481.916 448.894" stroke="#48484A" stroke-width="2"/>
<path d="M446 470.463C446.777 469.686 448.94 468.366 451.377 469.298M472.798 470.821C473.843 471.688 476.49 473.349 478.713 473.062C481.491 472.704 485.345 467.595 491.798 472.255C493.322 473.361 497.211 474.908 500.581 472.255C504.794 468.939 507.841 469.298 511.515 472.704M446 477.902C447.165 476.796 450.445 475.249 454.245 477.902C458.046 480.555 462.819 479.007 464.731 477.902C466.106 476.856 469.356 475.482 472.798 477.991C474.112 479.694 478.157 482.24 482.387 479.157C486.618 476.073 490.424 477.872 491.798 479.157C493.322 480.381 497.211 482.096 500.581 479.157C504.794 475.482 509.275 477.364 511.515 480.142M446 484.982C447.613 484.026 451.521 482.688 454.245 484.982C456.217 485.789 458.906 489.374 464.731 484.982C465.986 484.982 467.241 482.742 471.812 484.982C473.873 486.954 479.161 489.929 483.821 486.058C484.837 485.311 487.478 484.265 489.916 486.058C491.918 487.88 497.068 490.431 501.657 486.058C503.449 484.743 507.93 483.279 511.515 487.94" stroke="#3498DB" stroke-width="2"/>
<path d="M427.696 786C422.736 791.736 414.861 807.815 423.035 826.241H427.427M427.696 786C431.953 792.59 434.224 798.698 435.21 804.104M427.696 786L427.427 826.241M433.253 823.104C432.65 824.379 432 825.432 431.37 826.241H427.427M433.253 823.104L440.781 825.793C444.081 822.529 448.879 815.714 451.022 806.972M433.253 823.104C435.238 818.911 436.708 812.318 435.21 804.104M435.21 804.104C435.601 803.336 435.994 802.6 436.389 801.894M436.389 801.894L445.262 800.071L451.022 806.972M436.389 801.894C437.348 800.183 438.317 798.654 439.276 797.293M451.022 806.972C451.421 805.343 451.728 803.647 451.916 801.894M439.276 797.293C444.009 790.576 448.522 787.922 450.55 787.434C452.097 792.508 452.4 797.388 451.916 801.894M439.276 797.293L447.055 795.5L451.916 801.894" stroke="#48484A" stroke-width="2"/>
<path d="M416 823.463C416.777 822.686 418.94 821.366 421.377 822.298M442.798 823.821C443.843 824.688 446.49 826.349 448.713 826.062C451.491 825.704 455.345 820.595 461.798 825.255C463.322 826.361 467.211 827.908 470.581 825.255C474.794 821.939 477.841 822.298 481.515 825.704M416 830.902C417.165 829.796 420.445 828.249 424.245 830.902C428.046 833.555 432.819 832.007 434.731 830.902C436.106 829.856 439.356 828.482 442.798 830.991C444.112 832.694 448.157 835.24 452.387 832.157C456.618 829.073 460.424 830.872 461.798 832.157C463.322 833.381 467.211 835.096 470.581 832.157C474.794 828.482 479.275 830.364 481.515 833.142M416 837.982C417.613 837.026 421.521 835.688 424.245 837.982C426.217 838.789 428.906 842.374 434.731 837.982C435.986 837.982 437.241 835.742 441.812 837.982C443.873 839.954 449.161 842.929 453.821 839.058C454.837 838.311 457.478 837.265 459.916 839.058C461.918 840.88 467.068 843.431 471.657 839.058C473.449 837.743 477.93 836.279 481.515 840.94" stroke="#3498DB" stroke-width="2"/>
<path d="M1375.7 345C1370.74 350.736 1362.86 366.815 1371.04 385.241H1375.43M1375.7 345C1379.95 351.59 1382.22 357.698 1383.21 363.104M1375.7 345L1375.43 385.241M1381.25 382.104C1380.65 383.379 1380 384.432 1379.37 385.241H1375.43M1381.25 382.104L1388.78 384.793C1392.08 381.529 1396.88 374.714 1399.02 365.972M1381.25 382.104C1383.24 377.911 1384.71 371.318 1383.21 363.104M1383.21 363.104C1383.6 362.336 1383.99 361.6 1384.39 360.894M1384.39 360.894L1393.26 359.071L1399.02 365.972M1384.39 360.894C1385.35 359.183 1386.32 357.654 1387.28 356.293M1399.02 365.972C1399.42 364.343 1399.73 362.647 1399.92 360.894M1387.28 356.293C1392.01 349.576 1396.52 346.922 1398.55 346.434C1400.1 351.508 1400.4 356.388 1399.92 360.894M1387.28 356.293L1395.05 354.5L1399.92 360.894" stroke="#48484A" stroke-width="2"/>
<path d="M1364 382.463C1364.78 381.686 1366.94 380.366 1369.38 381.298M1390.8 382.821C1391.84 383.688 1394.49 385.349 1396.71 385.062C1399.49 384.704 1403.35 379.595 1409.8 384.255C1411.32 385.361 1415.21 386.908 1418.58 384.255C1422.79 380.939 1425.84 381.298 1429.52 384.704M1364 389.902C1365.17 388.796 1368.45 387.249 1372.25 389.902C1376.05 392.555 1380.82 391.007 1382.73 389.902C1384.11 388.856 1387.36 387.482 1390.8 389.991C1392.11 391.694 1396.16 394.24 1400.39 391.156C1404.62 388.073 1408.42 389.872 1409.8 391.156C1411.32 392.381 1415.21 394.096 1418.58 391.156C1422.79 387.482 1427.27 389.364 1429.52 392.142M1364 396.982C1365.61 396.026 1369.52 394.688 1372.25 396.982C1374.22 397.789 1376.91 401.374 1382.73 396.982C1383.99 396.982 1385.24 394.741 1389.81 396.982C1391.87 398.954 1397.16 401.929 1401.82 398.058C1402.84 397.311 1405.48 396.265 1407.92 398.058C1409.92 399.88 1415.07 402.431 1419.66 398.058C1421.45 396.743 1425.93 395.279 1429.52 399.94" stroke="#3498DB" stroke-width="2"/>
<path d="M1250.7 264C1245.74 269.736 1237.86 285.815 1246.04 304.241H1250.43M1250.7 264C1254.95 270.59 1257.22 276.698 1258.21 282.104M1250.7 264L1250.43 304.241M1256.25 301.104C1255.65 302.379 1255 303.432 1254.37 304.241H1250.43M1256.25 301.104L1263.78 303.793C1267.08 300.529 1271.88 293.714 1274.02 284.972M1256.25 301.104C1258.24 296.911 1259.71 290.318 1258.21 282.104M1258.21 282.104C1258.6 281.336 1258.99 280.6 1259.39 279.894M1259.39 279.894L1268.26 278.071L1274.02 284.972M1259.39 279.894C1260.35 278.183 1261.32 276.654 1262.28 275.293M1274.02 284.972C1274.42 283.343 1274.73 281.647 1274.92 279.894M1262.28 275.293C1267.01 268.576 1271.52 265.922 1273.55 265.434C1275.1 270.508 1275.4 275.388 1274.92 279.894M1262.28 275.293L1270.05 273.5L1274.92 279.894" stroke="#48484A" stroke-width="2"/>
<path d="M1239 301.463C1239.78 300.686 1241.94 299.366 1244.38 300.298M1265.8 301.821C1266.84 302.688 1269.49 304.349 1271.71 304.062C1274.49 303.704 1278.35 298.595 1284.8 303.255C1286.32 304.361 1290.21 305.908 1293.58 303.255C1297.79 299.939 1300.84 300.298 1304.52 303.704M1239 308.902C1240.17 307.796 1243.45 306.249 1247.25 308.902C1251.05 311.555 1255.82 310.007 1257.73 308.902C1259.11 307.856 1262.36 306.482 1265.8 308.991C1267.11 310.694 1271.16 313.24 1275.39 310.156C1279.62 307.073 1283.42 308.872 1284.8 310.156C1286.32 311.381 1290.21 313.096 1293.58 310.156C1297.79 306.482 1302.27 308.364 1304.52 311.142M1239 315.982C1240.61 315.026 1244.52 313.688 1247.25 315.982C1249.22 316.789 1251.91 320.374 1257.73 315.982C1258.99 315.982 1260.24 313.741 1264.81 315.982C1266.87 317.954 1272.16 320.929 1276.82 317.058C1277.84 316.311 1280.48 315.265 1282.92 317.058C1284.92 318.88 1290.07 321.431 1294.66 317.058C1296.45 315.743 1300.93 314.279 1304.52 318.94" stroke="#3498DB" stroke-width="2"/>
</svg>
